# xmcd
#
# Track frame offsets: 
#        150
#        20777
#        37500
#        61577
#        92700
#        104110
#        125172
#        138297
#        162447
#        182250
#        200400
#        224397
#
# Disc length: 3207 seconds
#
# Revision: 0
# Processed by: cddbd v1.4PL0 Copyright (c) Steve Scherf et al.
# Submitted via: ExactAudioCopy v0.95a3
#
DISCID=a40c850c
DTITLE=Claudio Gabis - Convocatoria - CD2
DYEAR=2000
DGENRE=Blues
TTITLE0=Bajando a Buenos Aires
TTITLE1=No hay tiempo de más
TTITLE2=Maradona blues
TTITLE3=Malas condiciones
TTITLE4=Boogie de Claudio
TTITLE5=Bluguala de la salina grande
TTITLE6=Para qué nos sirven
TTITLE7=Buenos Aires shuffle
TTITLE8=Desconfío
TTITLE9=En el fondo del mar
TTITLE10=Cuando quieras encontrarme
TTITLE11=El vuelo de tu falda
EXTD=
EXTT0=
EXTT1=
EXTT2=
EXTT3=
EXTT4=
EXTT5=
EXTT6=
EXTT7=
EXTT8=
EXTT9=
EXTT10=
EXTT11=
PLAYORDER=
